<svg width="1001" height="1000" viewBox="0 0 1001 1000" fill="none" xmlns="http://www.w3.org/2000/svg">
<g clip-path="url(#clip0_395_2)">
<path d="M317.217 24.878L228.123 229.866M317.217 24.878L545.169 9M317.217 24.878L302.724 220.798M317.217 24.878L513.433 67.7644M228.123 229.866L368.262 411M228.123 229.866L302.724 220.798M545.169 9L682.123 191.126M545.169 9L513.433 67.7644M302.724 220.798L368.262 411M302.724 220.798L513.433 67.7644M302.724 220.798L534.975 330.378M513.433 67.7644L682.123 191.126M513.433 67.7644L534.975 330.378M574.003 399.502L682.123 191.126M574.003 399.502L368.262 411M574.003 399.502L534.975 330.378M682.123 191.126L534.975 330.378M368.262 411L534.975 330.378" stroke="#DAA96C" stroke-width="12" stroke-linecap="round" stroke-linejoin="round"/>
<path d="M1000.12 1000H0.123047L11.623 972.5L54.623 954L84.623 930.5L144.623 936.5L184.123 905L232.123 851L312.123 805.5L364.623 762.5L409.123 682.5L491.771 574.61L604.123 479L734.123 213.5L797.451 165.367L886.537 61.804L1000.12 0V1000Z" fill="#DAA96C"/>
<path d="M238.602 692.607L214.815 780.234L167.404 893.198L146.704 911.052L154.092 825.07L171.037 775.762L173.003 699.183L156.367 653.166L173.35 611.671L151.771 514.112L145.204 450.076L169.325 371.012L223.349 278.493L233.305 299.402L204.287 375.404L189.665 435.01L195.212 450.609L249.297 485.501L273.575 497.101L306.386 496.157L342.831 436.38L365.06 438.16L336.985 521.789L285.527 543.922L251.907 539.4L238.985 612.128L318.566 589.076L338.145 598.354L343.584 749.905L317.897 769.566L302.472 652.443L238.602 692.607Z" fill="#DAA96C"/>
<path d="M228.505 412.799L216.384 439.287L208.311 446.293L258.008 478.675L275.145 466.252L288.181 431.981L265.326 403.043L247.838 401.818L228.505 412.799Z" fill="#DAA96C"/>
</g>
<defs>
<clipPath id="clip0_395_2">
<rect width="1000" height="1000" fill="white" transform="translate(0.123047)"/>
</clipPath>
</defs>
</svg>
