<svg width="512" height="512" viewBox="0 0 512 512" fill="none" xmlns="http://www.w3.org/2000/svg">
<g clip-path="url(#clip0_6_15)">
<path d="M162.352 12.7375L116.736 117.691M162.352 12.7375L279.064 4.608M162.352 12.7375L154.932 113.049M162.352 12.7375L262.815 34.6954M116.736 117.691L188.488 210.432M116.736 117.691L154.932 113.049M279.064 4.608L349.184 97.8565M279.064 4.608L262.815 34.6954M154.932 113.049L188.488 210.432M154.932 113.049L262.815 34.6954M154.932 113.049L273.845 169.153M262.815 34.6954L349.184 97.8565M262.815 34.6954L273.845 169.153M293.827 204.545L349.184 97.8565M293.827 204.545L188.488 210.432M293.827 204.545L273.845 169.153M349.184 97.8565L273.845 169.153M188.488 210.432L273.845 169.153" stroke="#0E0B08" stroke-width="12" stroke-linecap="round" stroke-linejoin="round"/>
<path d="M512 512H0L5.888 497.92L27.904 488.448L43.264 476.416L73.984 479.488L94.208 463.36L118.784 435.712L159.744 412.416L186.624 390.4L209.408 349.44L251.724 294.2L309.248 245.248L375.808 109.312L408.232 84.6682L453.844 31.6437L512 0V512Z" fill="#0E0B08"/>
<path d="M122.101 354.615L109.922 399.48L85.6473 457.317L75.0493 466.459L78.8317 422.436L87.5077 397.19L88.514 357.981L79.9965 334.421L88.6919 313.176L77.6435 263.226L74.2812 230.439L86.6308 189.958L114.291 142.589L119.389 153.294L104.531 192.207L97.0453 222.725L99.8852 230.712L127.577 248.576L140.007 254.516L156.806 254.032L175.466 223.426L186.847 224.338L172.473 267.156L146.127 278.488L128.913 276.173L122.297 313.41L163.043 301.607L173.067 306.357L175.852 383.951L162.7 394.018L154.802 334.051L122.101 354.615Z" fill="#0E0B08"/>
<path d="M116.932 211.353L110.726 224.915L106.593 228.502L132.038 245.081L140.812 238.721L147.486 221.174L135.784 206.358L126.83 205.731L116.932 211.353Z" fill="#0E0B08"/>
</g>
<defs>
<clipPath id="clip0_6_15">
<rect width="512" height="512" fill="white"/>
</clipPath>
</defs>
</svg>
